<?xml version="1.0" encoding="utf-8"?>
<!-- Generator: Adobe Illustrator 24.3.0, SVG Export Plug-In . SVG Version: 6.00 Build 0)  -->
<svg version="1.1" id="Musles" xmlns="http://www.w3.org/2000/svg" xmlns:xlink="http://www.w3.org/1999/xlink" x="0px" y="0px"
	 viewBox="0 0 512 512" style="enable-background:new 0 0 512 512;" xml:space="preserve">
<style type="text/css">
	.st0{fill:#FFFFFF;stroke:#000000;stroke-miterlimit:10;}
</style>
<path class="st0" d="M132.06,97.6c-13.19,16.25-48.33,63.88-52.85,134.81c-4.9,76.84,29.27,131.86,40.6,148.6
	c14.44-20.64,34.01-54.63,42.89-100.34C180.02,191.54,144.6,120.32,132.06,97.6z"/>
<path class="st0" d="M240.06,129.77c-11.31,15.35-51.94,74.21-38.3,146.3c10.44,55.18,51.69,112.9,78.13,107.23
	c26.63-5.71,37.56-75.62,29.87-127.15C300.07,191.12,259.64,148.01,240.06,129.77z"/>
<path class="st0" d="M364.15,155.81c26.5-9.66,65.13,20.2,81.96,52.09c17.27,32.71,21.93,87.16-9.19,107.23
	c-25.52,16.47-65.02,3.32-85.79-18.38C311.16,254.98,328.44,168.83,364.15,155.81z"/>
</svg>
