<?xml version="1.0" encoding="utf-8"?>
<!-- Generator: Adobe Illustrator 24.3.0, SVG Export Plug-In . SVG Version: 6.00 Build 0)  -->
<svg version="1.1" id="Layer_1" xmlns="http://www.w3.org/2000/svg" xmlns:xlink="http://www.w3.org/1999/xlink" x="0px" y="0px"
	 viewBox="0 0 440 290" style="enable-background:new 0 0 440 290;" xml:space="preserve">
<style type="text/css">
	.st0{fill:#FC0303;stroke:#010101;stroke-miterlimit:10;}
</style>
<g id="Трапеция_верхняя">
	<path id="_x34__9_" class="st0" d="M145.7,19.7c-8.5,5.3-17,10.5-25.6,15.8c8.5,0.2,17,0.4,25.6,0.5
		C145.7,30.6,145.7,25.2,145.7,19.7z"/>
	<path id="_x33__13_" class="st0" d="M167.1,19.1c8,5.3,16,10.5,24,15.8c-8,0.2-16,0.4-24,0.5C167.1,30,167.1,24.5,167.1,19.1z"/>
	<path id="_x32_" class="st0" d="M292.1,13.4c-10.9,6.8-21.8,13.6-32.8,20.4c8.5,0.2,17,0.4,25.6,0.5c2.3-3.6,4.6-7.2,6.9-10.8
		C291.9,20.2,292,16.8,292.1,13.4z"/>
	<path id="_x31_" class="st0" d="M293.4,13.4c10.9,6.8,21.8,13.6,32.8,20.4c-8.5,0.2-17,0.4-25.6,0.5c-2.3-3.6-4.6-7.2-6.9-10.8
		C293.6,20.2,293.5,16.8,293.4,13.4z"/>
</g>
</svg>
