<?xml version="1.0" encoding="utf-8"?>
<!-- Generator: Adobe Illustrator 24.3.0, SVG Export Plug-In . SVG Version: 6.00 Build 0)  -->
<svg version="1.1" id="Layer_1" xmlns="http://www.w3.org/2000/svg" xmlns:xlink="http://www.w3.org/1999/xlink" x="0px" y="0px"
	 viewBox="0 0 440 290" style="enable-background:new 0 0 440 290;" xml:space="preserve">
<style type="text/css">
	.st0{fill:#B3B5B8;stroke:#010101;stroke-miterlimit:10;}
</style>
<g id="Трапеция_верхняя">
	<path id="_x34__9_" class="st0" d="M145.71,19.74c-8.52,5.27-17.04,10.53-25.56,15.8c8.52,0.18,17.04,0.36,25.56,0.55
		C145.71,30.63,145.71,25.18,145.71,19.74z"/>
	<path id="_x33__13_" class="st0" d="M167.15,19.1c8,5.27,16,10.53,23.99,15.8c-8,0.18-16,0.36-23.99,0.55
		C167.15,29.99,167.15,24.54,167.15,19.1z"/>
	<path id="_x32_" class="st0" d="M292.1,13.45c-10.92,6.81-21.84,13.62-32.76,20.43c8.52,0.18,17.04,0.36,25.56,0.55
		c2.31-3.61,4.62-7.22,6.93-10.83C291.91,20.22,292,16.84,292.1,13.45z"/>
	<path id="_x31_" class="st0" d="M293.43,13.45c10.92,6.81,21.84,13.62,32.76,20.43c-8.52,0.18-17.04,0.36-25.56,0.55
		c-2.31-3.61-4.62-7.22-6.93-10.83C293.61,20.22,293.53,16.84,293.43,13.45z"/>
</g>
<g id="Трапеция_нижняя">
	<path id="_x32__14_" class="st0" d="M257.27,35.27c10.02,0.28,20.04,0.56,30.06,0.84c1.48,2.55,2.97,5.1,4.45,7.65
		c0.04,14.33,0.08,28.66,0.13,42.99c-4.9-7.34-9.79-14.68-14.68-22.03c0.36-7.38,0.73-14.77,1.1-22.16
		c-4.08-0.1-8.15-0.21-12.23-0.31C263.15,39.93,260.21,37.6,257.27,35.27z"/>
	<path id="_x31__23_" class="st0" d="M328.1,35.31c-10.03,0.27-20.05,0.53-30.08,0.8c-1.48,2.55-2.97,5.1-4.45,7.65
		c-0.04,14.33-0.08,28.66-0.13,42.99c4.9-7.34,9.79-14.68,14.68-22.03c-0.36-7.38-0.73-14.77-1.1-22.16
		c4.04-0.07,8.08-0.15,12.12-0.23C322.13,40,325.11,37.65,328.1,35.31z"/>
	<path class="st0" d="M341.49,53.05"/>
</g>
<g id="Широчайшая_x2C__ромбовидная_x2C__круглая">
	<path id="_x34__1_" class="st0" d="M182.84,73.9c-1.34,3.98-2.68,7.95-4.02,11.93c0.65-6.11,1.3-12.22,1.95-18.33
		c0.92-0.84,1.84-1.67,2.76-2.51C183.3,67.96,183.07,70.93,182.84,73.9z"/>
	<path id="_x33__1_" class="st0" d="M128.18,73.9c1.34,3.98,2.68,7.95,4.02,11.93c-0.65-6.11-1.3-12.22-1.95-18.33
		c-0.92-0.84-1.84-1.67-2.76-2.51C127.71,67.96,127.95,70.93,128.18,73.9z"/>
	<path id="_x32__2_" class="st0" d="M265.55,43.35c-0.17,2.79-0.33,5.58-0.5,8.37c-0.9,1.27-1.81,2.54-2.72,3.8
		c0.98,5.48,1.95,10.96,2.93,16.44c1.59,5.41,3.18,10.82,4.77,16.23c0.44,5.25,0.88,10.5,1.33,15.75c3.27,2.64,6.53,5.28,9.8,7.93
		c0.92,0.03,1.84,0.05,2.76,0.08c2.6-7.61,5.19-15.23,7.78-22.84c-5.35-8.09-10.7-16.18-16.06-24.28
		c0.44-7.05,0.88-14.11,1.33-21.16C273.16,43.57,269.35,43.46,265.55,43.35z"/>
	<path id="_x32__4_" class="st0" d="M319.97,43.35c0.17,2.79,0.33,5.58,0.5,8.37c0.9,1.27,1.81,2.54,2.72,3.8
		c-0.98,5.48-1.95,10.96-2.93,16.44c-1.59,5.41-3.18,10.82-4.77,16.23c-0.31,5.37-0.63,10.74-0.95,16.11
		c-3.39,2.52-6.78,5.05-10.18,7.57c-0.92,0.03-1.84,0.05-2.76,0.08c-2.6-7.61-5.19-15.23-7.78-22.84
		c5.35-8.09,10.7-16.18,16.06-24.28c-0.44-7.05-0.88-14.11-1.33-21.16C312.35,43.57,316.16,43.46,319.97,43.35z"/>
</g>
<g id="разгибатель_спины">
	<path id="_x31__22_" class="st0" d="M292.7,89.79c-2.63,7.79-5.26,15.58-7.88,23.38c-1.12,0.01-2.24,0.03-3.36,0.04
		c0.04,1.17,0.08,2.34,0.13,3.51c3.76,3.57,7.51,7.13,11.26,10.7c3.52-3.38,7.04-6.75,10.56-10.13c0.08-1.39,0.17-2.78,0.25-4.16
		c-0.99-0.04-1.99-0.09-2.98-0.13C298.02,105.26,295.36,97.53,292.7,89.79z"/>
</g>
<g id="Зубчатые_мышцы_x2C__косые_мышцы_пресса">
	<path id="_x32__9_" class="st0" d="M131.66,68.57c2.59,1.46,5.19,2.93,7.78,4.39c0.36,12.53,0.72,25.05,1.08,37.57
		c0.72,1.97,1.44,3.95,2.15,5.92c-1.88,2.57-3.77,5.15-5.65,7.72c-2.62-2.18-5.23-4.35-7.85-6.53c0.02-2.22,0.04-4.43,0.06-6.65
		c1.15-1.63,2.3-3.26,3.45-4.9c0.42-5.35,0.84-10.71,1.25-16.07C133.19,82.88,132.42,75.72,131.66,68.57z"/>
	<path id="_x31__34_" class="st0" d="M179.28,68.57c-2.59,1.46-5.19,2.93-7.78,4.39c-0.36,12.53-0.72,25.05-1.08,37.57
		c-0.72,1.97-1.44,3.95-2.15,5.92c1.88,2.57,3.77,5.15,5.65,7.72c2.62-2.18,5.23-4.35,7.85-6.53c-0.02-2.22-0.04-4.43-0.06-6.65
		c-1.15-1.63-2.3-3.26-3.45-4.9c-0.42-5.35-0.84-10.71-1.25-16.07C177.75,82.88,178.52,75.72,179.28,68.57z"/>
	<path class="st0" d="M279.76,112.67c-3.06-2.48-6.13-4.97-9.19-7.45c-1.27,1.67-2.54,3.33-3.8,5c-0.01,3.25-0.03,6.5-0.04,9.75
		c4.39-1.24,8.77-2.48,13.16-3.72C279.83,115.06,279.8,113.87,279.76,112.67z"/>
	<path class="st0" d="M306.02,112.67c3.06-2.48,6.13-4.97,9.19-7.45c1.27,1.67,2.54,3.33,3.8,5c0.01,3.25,0.03,6.5,0.04,9.75
		c-4.39-1.24-8.77-2.48-13.16-3.72C305.94,115.06,305.98,113.87,306.02,112.67z"/>
</g>
<g id="Ягодицы">
	<path id="_x32__11_" class="st0" d="M280.42,117.8c-4.57,1.25-9.15,2.51-13.72,3.77c-0.59,6.2-1.18,12.4-1.78,18.6
		c1.15,5.31,2.3,10.63,3.45,15.94c2.82,0.82,5.65,1.63,8.47,2.45c2.32-0.75,4.65-1.5,6.97-2.26c2.49-1.72,4.98-3.45,7.47-5.17
		c0.25-3.8,0.5-7.59,0.75-11.38c-0.05-3.64-0.11-7.28-0.17-10.92C288.05,125.15,284.23,121.47,280.42,117.8z"/>
	<path id="_x31__18_" class="st0" d="M305.32,117.84c4.57,1.25,9.15,2.51,13.72,3.77c0.59,6.2,1.18,12.4,1.78,18.6
		c-1.15,5.31-2.3,10.63-3.45,15.94c-2.82,0.82-5.65,1.63-8.47,2.45c-2.32-0.75-4.65-1.5-6.97-2.26c-2.49-1.72-4.98-3.45-7.47-5.17
		c-0.25-3.8-0.5-7.59-0.75-11.38c0.05-3.64,0.11-7.28,0.17-10.92C297.69,125.19,301.5,121.52,305.32,117.84z"/>
</g>
<g id="Задняя_поверхность_бедра">
	<path id="_x31__2_" class="st0" d="M283.87,158.08c-0.21,7.61-0.42,15.22-0.63,22.83c0.92,3.12,1.84,6.25,2.76,9.37
		c-0.3,6.08-0.61,12.16-0.92,18.24c-1.92,3.74-3.85,7.48-5.77,11.21c-1.76-2.67-3.51-5.34-5.27-8.01c-2.02-0.53-4.04-1.05-6.06-1.57
		c-1.8,1.8-3.61,3.6-5.41,5.4c-0.81-9.15-1.62-18.3-2.43-27.45c2.59-9.9,5.17-19.8,7.75-29.7c2.97,0.63,5.94,1.26,8.91,1.9
		C279.17,159.56,281.52,158.82,283.87,158.08z"/>
	<path id="_x31__6_" class="st0" d="M301.47,158.08c0.21,7.61,0.42,15.22,0.63,22.83c-0.92,3.12-1.84,6.25-2.76,9.37
		c0.3,6.08,0.61,12.16,0.92,18.24c1.92,3.74,3.85,7.48,5.77,11.21c1.76-2.67,3.51-5.34,5.27-8.01c2.02-0.53,4.04-1.05,6.06-1.57
		c1.8,1.8,3.61,3.6,5.41,5.4c0.81-9.15,1.62-18.3,2.43-27.45c-2.59-9.9-5.17-19.8-7.75-29.7c-2.97,0.63-5.94,1.26-8.91,1.9
		C306.17,159.56,303.82,158.82,301.47,158.08z"/>
</g>
<g id="Четырёхглавая">
	<path id="_x32__10_" class="st0" d="M263.96,143.13c0.91,4.56,1.83,9.11,2.74,13.67c-2.34,8.97-4.67,17.94-7,26.92
		c-0.22-7.32-0.43-14.64-0.64-21.95C260.7,155.54,262.33,149.33,263.96,143.13z"/>
	<path id="_x31__5_" class="st0" d="M321.64,143.13c-0.91,4.56-1.83,9.11-2.74,13.67c2.34,8.97,4.67,17.94,7,26.92
		c0.22-7.32,0.43-14.64,0.64-21.95C324.91,155.54,323.27,149.33,321.64,143.13z"/>
	<path id="_x33__2_" class="st0" d="M132.95,132.45c-2.3,5.29-4.6,10.58-6.9,15.88c-1.42,6.28-2.85,12.55-4.27,18.83
		c0.95,12.33,1.9,24.67,2.85,37.01c1.35-0.7,2.7-1.4,4.06-2.09c1.5-2.68,3.01-5.35,4.52-8.03c1.82,4.45,3.65,8.9,5.48,13.35
		c3.23,0.17,6.47,0.33,9.71,0.5c0.25-7.32,0.5-14.64,0.75-21.96c-1.84-6.86-3.68-13.72-5.52-20.58c-2.03-4.16-4.07-8.94-5.9-14.31
		C135.4,144.23,133.91,137.95,132.95,132.45z"/>
	<path id="_x33__3_" class="st0" d="M177.52,132.45c2.3,5.29,4.6,10.58,6.9,15.88c1.42,6.28,2.85,12.55,4.27,18.83
		c-0.95,12.33-1.9,24.67-2.85,37.01c-1.35-0.7-2.7-1.4-4.06-2.09c-1.5-2.68-3.01-5.35-4.52-8.03c-1.82,4.45-3.65,8.9-5.48,13.35
		c-3.23,0.17-6.47,0.33-9.71,0.5c-0.25-7.32-0.5-14.64-0.75-21.96c1.84-6.86,3.68-13.72,5.52-20.58c2.03-4.16,4.07-8.94,5.9-14.31
		C175.08,144.23,176.56,137.95,177.52,132.45z"/>
</g>
<g id="Икры">
	<path id="_x34__2_" class="st0" d="M142.74,221.07c0.75,2.05,1.5,4.1,2.26,6.15c0,4.02,0,8.03,0,12.05c-2.8,7.7-5.6,15.4-8.41,23.1
		c-0.64,4.5-1.28,9.01-1.92,13.51c-0.95-1.95-1.9-3.9-2.85-5.85c0.38-11.59,0.75-23.18,1.13-34.77c1.38-2.44,2.76-4.87,4.14-7.31
		C138.97,225.65,140.86,223.36,142.74,221.07z"/>
	<path id="_x33__4_" class="st0" d="M124.48,220c1.28,2.28,2.55,4.56,3.83,6.84c-0.27,14.33-0.55,28.66-0.82,42.99
		c-1.05,1.99-2.09,3.98-3.14,5.96c-0.08-3.05-0.17-6.11-0.25-9.16c-1.59-11.18-3.18-22.36-4.77-33.54
		C121.04,228.72,122.76,224.36,124.48,220z"/>
	<path id="_x32__8_" class="st0" d="M167.9,221.74c-0.75,2.05-1.5,4.1-2.26,6.15c0,4.02,0,8.03,0,12.05c2.8,7.7,5.6,15.4,8.41,23.1
		c0.64,4.5,1.28,9.01,1.92,13.51c0.95-1.95,1.9-3.9,2.85-5.85c-0.38-11.59-0.75-23.18-1.13-34.77c-1.38-2.44-2.76-4.87-4.14-7.31
		C171.67,226.32,169.79,224.03,167.9,221.74z"/>
	<path id="_x31__33_" class="st0" d="M186.17,220.67c-1.28,2.28-2.55,4.56-3.83,6.84c0.27,14.33,0.55,28.66,0.82,42.99
		c1.05,1.99,2.09,3.98,3.14,5.96c0.08-3.05,0.17-6.11,0.25-9.16c1.59-11.18,3.18-22.36,4.77-33.54
		C189.6,229.39,187.88,225.03,186.17,220.67z"/>
	<path id="_x36_" class="st0" d="M267.97,212.29c-1.92,1.91-3.85,3.82-5.77,5.73c-1.48,3.63-2.95,7.25-4.43,10.88
		c1.63,15.1,3.26,30.21,4.9,45.31c1.19-0.86,2.38-1.72,3.58-2.57c1.65,0.25,3.3,0.5,4.96,0.75c1.25-5.39,2.51-10.78,3.77-16.17
		c2.95-7.59,5.91-15.18,8.87-22.76c-1.75-3.95-3.49-7.9-5.23-11.84c-1.92-2.7-3.85-5.4-5.77-8.1
		C271.21,213.11,269.59,212.7,267.97,212.29z"/>
	<path id="_x35_" class="st0" d="M317.43,212.29c1.92,1.91,3.85,3.82,5.77,5.73c1.48,3.63,2.95,7.25,4.43,10.88
		c-1.63,15.1-3.26,30.21-4.9,45.31c-1.19-0.86-2.38-1.72-3.58-2.57c-1.65,0.25-3.3,0.5-4.96,0.75c-1.25-5.39-2.51-10.78-3.77-16.17
		c-2.95-7.59-5.91-15.18-8.87-22.76c1.75-3.95,3.49-7.9,5.23-11.84c1.92-2.7,3.85-5.4,5.77-8.1
		C314.2,213.11,315.82,212.7,317.43,212.29z"/>
</g>
<g id="Дельты">
	<path id="_x31__7_" class="st0" d="M117.38,37.1c8.55,0.17,17.1,0.33,25.65,0.5c-4.14,2.25-8.28,4.49-12.43,6.73
		c-2.57,4.3-5.13,8.59-7.7,12.88c-2.7,2.86-5.41,5.72-8.12,8.58c-1.67-0.03-3.35-0.05-5.02-0.08c-0.64-1.75-1.28-3.5-1.92-5.25
		c0.06-2.78,0.13-5.56,0.19-8.35c1.26-3.83,2.52-7.67,3.79-11.5C113.67,39.45,115.53,38.27,117.38,37.1z"/>
	<path id="_x31__9_" class="st0" d="M193.91,37.1c-8.55,0.17-17.1,0.33-25.65,0.5c4.14,2.25,8.28,4.49,12.43,6.73
		c2.57,4.3,5.13,8.59,7.7,12.88c2.7,2.86,5.41,5.72,8.12,8.58c1.67-0.03,3.35-0.05,5.02-0.08c0.64-1.75,1.28-3.5,1.92-5.25
		c-0.06-2.78-0.13-5.56-0.19-8.35c-1.26-3.83-2.52-7.67-3.79-11.5C197.62,39.45,195.77,38.27,193.91,37.1z"/>
	<path id="_x33__10_" class="st0" d="M255.07,35.84c2.92,2.4,5.83,4.8,8.75,7.2c-0.17,2.67-0.33,5.34-0.5,8.01
		c-0.93,1.24-1.85,2.48-2.78,3.72c-2.05,0.73-4.1,1.45-6.15,2.18c-2.43,1.97-4.85,3.93-7.28,5.9c-0.7-2.63-1.4-5.27-2.09-7.91
		c1.07-4.74,2.15-9.48,3.22-14.23C250.51,39.09,252.79,37.46,255.07,35.84z"/>
	<path id="_x33__9_" class="st0" d="M330.37,35.84c-2.92,2.4-5.83,4.8-8.75,7.2c0.17,2.67,0.33,5.34,0.5,8.01
		c0.93,1.24,1.85,2.48,2.78,3.72c2.05,0.73,4.1,1.45,6.15,2.18c2.43,1.97,4.85,3.93,7.28,5.9c0.7-2.63,1.4-5.27,2.09-7.91
		c-1.07-4.74-2.15-9.48-3.22-14.23C334.92,39.09,332.65,37.46,330.37,35.84z"/>
</g>
<g id="Грудные_малая">
	<path id="_x31__27_" class="st0" d="M181.29,48.45c-0.64-1.03-1.28-2.05-1.92-3.08c-4.23-2.25-8.46-4.49-12.69-6.73
		c-2.23,0.25-4.45,0.5-6.69,0.75c-0.88,1.99-1.76,3.98-2.63,5.96c4.5-0.43,9-0.87,13.49-1.3C174.33,45.52,177.81,46.98,181.29,48.45
		z"/>
	<path id="_x31__26_" class="st0" d="M130.23,48.45c0.64-1.03,1.28-2.05,1.92-3.08c4.23-2.25,8.46-4.49,12.69-6.73
		c2.23,0.25,4.45,0.5,6.69,0.75c0.88,1.99,1.76,3.98,2.63,5.96c-4.5-0.43-9-0.87-13.49-1.3C137.19,45.52,133.71,46.98,130.23,48.45z
		"/>
</g>
<g id="Грудная_большая">
	<path id="_x31__13_" class="st0" d="M154.41,47.1c-0.08,2.97-0.17,5.94-0.25,8.91c-0.15,2.19-0.3,4.38-0.46,6.57
		c-1.03,1.55-2.05,3.11-3.08,4.67c-1.6,0.95-3.21,1.9-4.81,2.85c-1.97,0.38-3.93,0.75-5.9,1.13c-2.89-1.58-5.79-3.15-8.68-4.73
		c-2.34-2.93-4.68-5.85-7.02-8.78c1.53-2.33,3.05-4.67,4.58-7c4.11-1.59,8.23-3.19,12.34-4.78
		C145.57,46.32,149.99,46.71,154.41,47.1z"/>
	<path id="_x31__14_" class="st0" d="M157.04,47.1c0.08,2.97,0.17,5.94,0.25,8.91c0.15,2.19,0.3,4.38,0.46,6.57
		c1.03,1.55,2.05,3.11,3.08,4.67c1.6,0.95,3.21,1.9,4.81,2.85c1.97,0.38,3.93,0.75,5.9,1.13c2.89-1.58,5.79-3.15,8.68-4.73
		c2.34-2.93,4.68-5.85,7.02-8.78c-1.53-2.33-3.05-4.67-4.58-7c-4.11-1.59-8.23-3.19-12.34-4.78
		C165.89,46.32,161.46,46.71,157.04,47.1z"/>
</g>
<g id="Пресс">
	<path id="_x31__19_" class="st0" d="M141.38,73.09c1.68-0.36,3.36-0.73,5.04-1.09c1.86-1.26,3.72-2.52,5.57-3.79
		c1.16,0.47,2.32,0.94,3.49,1.41c1.2-0.47,2.41-0.93,3.62-1.4c2.13,1.34,4.27,2.68,6.4,4.02c1.42,0.25,2.85,0.5,4.27,0.75
		c-0.04,0.81-0.08,1.62-0.13,2.43c-0.4,11.38-0.81,22.76-1.21,34.14c-0.81,2.36-1.62,4.71-2.43,7.07c-0.36,3.6-0.73,7.2-1.09,10.8
		c-1.72,1.95-3.43,3.9-5.15,5.85c-1.53,0.01-3.07,0.03-4.6,0.04c-1.34,0-2.68,0-4.02,0c-1.85-1.84-3.71-3.68-5.56-5.52
		c-0.29-3.72-0.59-7.45-0.88-11.17c-0.79-2.28-1.58-4.56-2.37-6.84c-0.32-11.53-0.65-23.05-0.97-34.58
		C141.36,74.51,141.37,73.8,141.38,73.09z"/>
</g>
<g id="Бицепс">
	<path id="_x31__16_" class="st0" d="M114.93,67.28c2.76-2.76,5.52-5.52,8.28-8.28c0.93,1.23,1.86,2.47,2.79,3.7
		c0.21,4.13,0.42,8.26,0.63,12.39c-2.35,5.75-4.7,11.5-7.06,17.26c-2.43,2.49-4.85,4.98-7.28,7.47c-1.14-3.8-2.28-7.61-3.42-11.42
		c-0.09-6.89-0.18-13.78-0.28-20.68C110.72,67.57,112.82,67.43,114.93,67.28z"/>
	<path id="_x31__17_" class="st0" d="M196.37,67.28c-2.76-2.76-5.52-5.52-8.28-8.28c-0.93,1.23-1.86,2.47-2.79,3.7
		c-0.21,4.13-0.42,8.26-0.63,12.39c2.35,5.75,4.7,11.5,7.06,17.26c2.43,2.49,4.85,4.98,7.28,7.47c1.14-3.8,2.28-7.61,3.42-11.42
		c0.09-6.89,0.18-13.78,0.28-20.68C200.59,67.57,198.49,67.43,196.37,67.28z"/>
</g>
<g id="Трицепс">
	<path id="_x32__7_" class="st0" d="M107.09,71.59c-1.03,4.65-2.06,9.31-3.1,13.96c1.12,1.53,2.23,3.07,3.35,4.6
		C107.26,83.97,107.18,77.78,107.09,71.59z"/>
	<path id="_x31__12_" class="st0" d="M119.68,94.07c-2.33,2.38-4.65,4.77-6.98,7.16c0.61,0.79,1.22,1.58,1.83,2.36
		c1.64-1.69,3.27-3.38,4.91-5.07C119.52,97.03,119.6,95.55,119.68,94.07z"/>
	<path id="_x32__3_" class="st0" d="M204.45,71.57c1.03,4.65,2.06,9.31,3.1,13.96c-1.12,1.53-2.23,3.07-3.35,4.6
		C204.29,83.94,204.37,77.75,204.45,71.57z"/>
	<path id="_x31__11_" class="st0" d="M191.19,94.09c2.33,2.38,4.65,4.77,6.98,7.16c-0.61,0.79-1.22,1.58-1.83,2.36
		c-1.64-1.69-3.27-3.38-4.91-5.07C191.35,97.05,191.27,95.57,191.19,94.09z"/>
	<path id="_x34__3_" class="st0" d="M260.87,56.38c-1.9,0.73-3.8,1.46-5.7,2.2c-3.13,2.3-6.26,4.6-9.39,6.9
		c-0.63,6.23-1.25,12.47-1.88,18.7c1.51,3.15,3.03,6.29,4.54,9.43c0.67,0.1,1.34,0.21,2.01,0.31c2.79-2.1,5.58-4.2,8.37-6.3
		c1.77-4.87,3.54-9.75,5.31-14.62C263.04,67.47,261.96,61.92,260.87,56.38z"/>
	<path id="_x34__4_" class="st0" d="M324.88,56.38c1.9,0.73,3.8,1.46,5.7,2.2c3.13,2.3,6.26,4.6,9.39,6.9
		c0.63,6.23,1.25,12.47,1.88,18.7c-1.51,3.15-3.03,6.29-4.54,9.43c-0.67,0.1-1.34,0.21-2.01,0.31c-2.79-2.1-5.58-4.2-8.37-6.3
		c-1.77-4.87-3.54-9.75-5.31-14.62C322.71,67.47,323.79,61.92,324.88,56.38z"/>
</g>
<g id="Предпелчья">
	<path id="_x31__20_" class="st0" d="M103.47,87.86c-0.62,2.32-1.24,4.63-1.86,6.95c-0.68,4.08-1.37,8.16-2.05,12.24
		c0.81,6.28,1.62,12.57,2.43,18.85c3,4.1,6,8.2,9,12.3c0.29-2.66,0.58-5.33,0.88-7.99c2.53-6.44,5.06-12.88,7.6-19.33
		c-0.02-3.35-0.04-6.7-0.06-10.04c-1.74,1.76-3.47,3.53-5.21,5.29c-1.17-1.6-2.33-3.2-3.5-4.79c-0.59-1.92-1.18-3.85-1.78-5.77
		C107.1,92.99,105.28,90.42,103.47,87.86z"/>
	<path id="_x31__21_" class="st0" d="M207.92,88.15c0.62,2.32,1.24,4.63,1.86,6.95c0.68,4.08,1.37,8.16,2.05,12.24
		c-0.81,6.28-1.62,12.57-2.43,18.85c-3,4.1-6,8.2-9,12.3c-0.29-2.66-0.59-5.33-0.88-7.99c-2.53-6.44-5.06-12.88-7.6-19.33
		c0.02-3.35,0.04-6.7,0.06-10.04c1.74,1.76,3.47,3.53,5.21,5.29c1.17-1.6,2.33-3.2,3.5-4.79c0.59-1.92,1.18-3.85,1.78-5.77
		C204.3,93.28,206.11,90.71,207.92,88.15z"/>
	<path id="_x33__8_" class="st0" d="M242.61,86.41c1.62,3.11,3.24,6.21,4.86,9.32c1.21,0.11,2.43,0.23,3.64,0.34
		c2.15-1.79,4.3-3.58,6.44-5.36c-0.05,2.27-0.11,4.55-0.17,6.82c-0.42,4.55-0.84,9.09-1.25,13.64c-2.5,7.18-4.99,14.36-7.49,21.55
		c-1.3,0.65-2.6,1.31-3.89,1.97c-0.4,1.33-0.81,2.65-1.21,3.98c-1.31,0.45-2.62,0.89-3.93,1.34c-1.09-11.06-2.18-22.12-3.26-33.18
		c0.84-4.85,1.67-9.7,2.51-14.56C240.11,90.3,241.36,88.36,242.61,86.41z"/>
	<path id="_x34__6_" class="st0" d="M343.04,86.41c-1.62,3.11-3.24,6.21-4.86,9.32c-1.21,0.11-2.43,0.23-3.64,0.34
		c-2.15-1.79-4.3-3.58-6.44-5.36c0.05,2.27,0.11,4.55,0.17,6.82c0.42,4.55,0.84,9.09,1.25,13.64c2.5,7.18,4.99,14.36,7.49,21.55
		c1.3,0.65,2.6,1.31,3.89,1.97c0.4,1.33,0.81,2.65,1.21,3.98c1.31,0.45,2.62,0.89,3.93,1.34c1.09-11.06,2.18-22.12,3.26-33.18
		c-0.84-4.85-1.67-9.7-2.51-14.56C345.55,90.3,344.29,88.36,343.04,86.41z"/>
</g>
</svg>
